<svg width="50" height="50" viewBox="0 0 50 50" fill="none" xmlns="http://www.w3.org/2000/svg">
<path d="M22.2627 48.6698V30.1091C22.2627 28.5581 23.5203 27.299 25.0721 27.299C26.6238 27.299 27.8814 28.558 27.8814 30.1091V48.6698C27.8814 50.2207 22.2627 50.2207 22.2627 48.6698Z" fill="#8E6049"/>
<path d="M40.179 42.0923C37.2464 45.31 31.8542 46.4244 25.0721 46.4244C18.4976 46.4244 13.7783 46.1289 10.0798 42.3088C10.0475 42.2761 10.0124 42.2463 9.97499 42.2196C9.16122 41.6279 8.88486 40.2073 9.70741 39.3045C11.5168 37.3184 13.4286 34.6245 15.286 31.6846C15.6349 31.1325 15.1678 30.4232 14.5233 30.5289C14.2103 30.5802 13.8964 30.6259 13.5817 30.6658C12.3315 30.8247 11.5996 29.0359 12.5188 28.0269C14.5473 25.8003 16.7307 22.503 18.7488 19.0776C19.0879 18.5022 18.5712 17.8019 17.9205 17.9525C17.2538 18.1068 16.5986 18.2176 15.9787 18.2964C14.991 18.4219 14.4127 17.0086 15.139 16.2115C18.2475 12.7993 21.8157 6.20608 23.9991 1.86409C24.0139 1.83384 24.0268 1.80269 24.0377 1.77083C24.1476 1.45911 24.3621 1.23567 24.6123 1.12122C24.7333 1.06342 24.8657 1.03377 24.9998 1.0345C25.1339 1.03379 25.2663 1.06343 25.3873 1.12122C25.6375 1.23567 25.8519 1.45911 25.9619 1.77083C25.9728 1.80269 25.9857 1.83384 26.0005 1.86409C28.1839 6.20608 31.7521 12.7994 34.8606 16.2115C35.5869 17.0086 35.0086 18.422 34.0209 18.2964C33.4011 18.2176 32.7459 18.1068 32.0791 17.9525C31.4284 17.8019 30.9118 18.5022 31.2508 19.0776C33.2689 22.503 35.4523 25.8003 37.4808 28.0269C38.4 29.036 37.6681 30.8247 36.4179 30.6658C36.1102 30.6268 35.7958 30.5814 35.4763 30.5289C34.8318 30.4232 34.3647 31.1325 34.7136 31.6846C36.571 34.6244 38.4828 37.3184 40.2922 39.3045C40.8342 39.8994 40.8984 40.7192 40.6471 41.3786C40.6102 41.5337 40.5248 41.6944 40.3845 41.861C40.323 41.9441 40.2543 42.0215 40.179 42.0923Z" fill="#149314"/>
<path d="M25.2398 0.149121L26.3478 2.39414C26.367 2.43302 26.3954 2.46666 26.4305 2.49214C26.4656 2.51763 26.5063 2.5342 26.5492 2.54043L29.0268 2.90049C29.2461 2.93232 29.3337 3.20195 29.175 3.35674L27.3822 5.1043C27.3512 5.13456 27.3279 5.17192 27.3145 5.21316C27.3011 5.2544 27.2979 5.29828 27.3053 5.34102L27.7285 7.80859C27.766 8.02705 27.5366 8.19375 27.3404 8.09053L25.1244 6.92549C25.086 6.90533 25.0433 6.8948 24.9999 6.8948C24.9566 6.8948 24.9139 6.90533 24.8755 6.92549L22.6595 8.09053C22.4633 8.19365 22.2339 8.02705 22.2714 7.80859L22.6946 5.34102C22.7019 5.29828 22.6988 5.2544 22.6854 5.21316C22.672 5.17192 22.6487 5.13456 22.6177 5.1043L20.8249 3.35674C20.6661 3.20195 20.7537 2.93242 20.9731 2.90049L23.4507 2.54043C23.4936 2.53418 23.5343 2.51761 23.5694 2.49212C23.6045 2.46664 23.6328 2.43301 23.652 2.39414L24.7601 0.149121C24.8583 -0.049707 25.1417 -0.049707 25.2398 0.149121Z" fill="#FFB636"/>
<path d="M24.5566 21.1508C24.5566 21.7843 24.0432 22.2977 23.4097 22.2977C22.7762 22.2977 22.2627 21.7843 22.2627 21.1508C22.2627 20.5173 22.7762 20.0038 23.4097 20.0038C24.0432 20.0038 24.5566 20.5173 24.5566 21.1508ZM32.1038 34.867C30.8005 34.867 29.7438 35.9235 29.7438 37.2269C29.7438 38.5302 30.8004 39.5869 32.1038 39.5869C33.4071 39.5869 34.4638 38.5303 34.4638 37.2269C34.4638 35.9235 33.4071 34.867 32.1038 34.867Z" fill="#FFD469"/>
<path d="M33.0446 25.6479C33.0446 27.0634 31.8972 28.2108 30.4817 28.2108C29.0661 28.2108 27.9187 27.0634 27.9187 25.6479C27.9187 24.2323 29.0661 23.0849 30.4817 23.0849C31.8972 23.085 33.0446 24.2324 33.0446 25.6479ZM20.2562 13.0957C19.6041 13.0957 19.0756 13.6243 19.0756 14.2763C19.0756 14.9282 19.6042 15.4568 20.2562 15.4568C20.9081 15.4568 21.4367 14.9282 21.4367 14.2763C21.4367 13.6243 20.9082 13.0957 20.2562 13.0957ZM18.2767 37.2057C17.229 37.2057 16.3797 38.055 16.3797 39.1026C16.3797 40.1503 17.229 40.9996 18.2767 40.9996C19.3243 40.9996 20.1736 40.1503 20.1736 39.1026C20.1736 38.0549 19.3243 37.2057 18.2767 37.2057Z" fill="#FF473E"/>
<path d="M27.9188 9.80115L28.602 10.5247L29.5967 10.4962L29.5682 11.4909L30.2917 12.1741L29.5682 12.8573L29.5967 13.852L28.602 13.8235L27.9188 14.547L27.2356 13.8235L26.2408 13.852L26.2693 12.8573L25.5458 12.1741L26.2693 11.4909L26.2408 10.4962L27.2356 10.5247L27.9188 9.80115ZM19.573 28.9344L18.5782 28.9058L18.6067 29.9006L17.8832 30.5838L18.6067 31.267L18.5782 32.2617L19.573 32.2332L20.2562 32.9567L20.9394 32.2332L21.9341 32.2617L21.9056 31.267L22.6291 30.5838L21.9056 29.9006L21.9341 28.9058L20.9394 28.9344L20.2562 28.2108L19.573 28.9344Z" fill="#76DFFF"/>
</svg>
