<svg width="50" height="50" viewBox="0 0 50 50" fill="none" xmlns="http://www.w3.org/2000/svg">
<path d="M49.068 47.8142C49.068 48.4587 48.5406 48.986 47.8961 48.986H2.26776C1.62323 48.986 1.09589 48.4587 1.09589 47.8142V2.18585C1.09589 1.54132 1.62323 1.01398 2.26776 1.01398H47.8961C48.5406 1.01398 49.068 1.54132 49.068 2.18585" fill="#2B3B47"/>
<path d="M13.5709 15.5339L13.7181 15.5605L13.8951 15.5924L14.0073 15.6126L14.069 15.6237L14.1416 15.6408L14.4718 15.7208C14.531 15.7359 14.5953 15.7499 14.657 15.768L14.8455 15.8267C14.9743 15.8692 15.1151 15.9059 15.2559 15.9608L15.701 16.1286L16.1719 16.3333C16.3319 16.4085 16.4946 16.4906 16.6628 16.5728C16.8287 16.6586 16.9954 16.7525 17.1673 16.8454C17.3362 16.9429 17.5059 17.0464 17.6796 17.1494C17.8487 17.259 18.0218 17.3684 18.1938 17.4831C18.3629 17.6018 18.5375 17.7169 18.7062 17.8419C19.0456 18.0896 19.3842 18.3476 19.7105 18.6186C20.04 18.8859 20.3572 19.1663 20.6658 19.4449C20.966 19.7188 21.2601 19.9992 21.548 20.2859C21.8168 20.5531 22.0804 20.8255 22.3387 21.1027C22.5701 21.3505 22.7974 21.6019 23.0207 21.8569C23.3545 22.2383 23.6787 22.6279 23.9932 23.0253C24.0812 23.137 24.1681 23.2495 24.254 23.3629L24.3452 23.4852C24.3691 23.5173 24.3797 23.5575 24.3747 23.5972C24.3698 23.637 24.3496 23.6733 24.3185 23.6986C24.2875 23.7239 24.2478 23.7362 24.2079 23.7329C24.1679 23.7297 24.1308 23.7111 24.1042 23.6812L24.101 23.6775L24.0041 23.5672L23.7222 23.2566C23.3821 22.8906 23.0329 22.533 22.6751 22.1842C22.4362 21.9515 22.1937 21.7226 21.9475 21.4976C21.6736 21.2466 21.3948 21.0009 21.1114 20.7607C20.9653 20.6345 20.8121 20.5119 20.6597 20.3848C20.5048 20.2609 20.3485 20.135 20.1888 20.0112C19.8683 19.7651 19.5407 19.5188 19.2039 19.2873C18.8697 19.052 18.5267 18.8315 18.1863 18.6221C18.0168 18.5161 17.8433 18.4209 17.6753 18.3216C17.505 18.2266 17.3346 18.1373 17.1686 18.0473L16.6709 17.8031C16.5057 17.7305 16.3457 17.6561 16.1881 17.5898C16.029 17.5275 15.8755 17.4645 15.7259 17.4081L15.2899 17.2585L14.8857 17.1419C14.758 17.1029 14.6342 17.0823 14.5196 17.054L14.353 17.0159C14.3 17.0048 14.2515 16.9991 14.2037 16.9908L13.9434 16.9479L13.8858 16.9383L13.8234 16.932L13.71 16.9207L13.5311 16.9028L13.3822 16.888L13.3815 16.8879C13.2897 16.8789 13.2007 16.8515 13.1198 16.8072C13.0388 16.763 12.9677 16.7028 12.9106 16.6303C12.8535 16.5579 12.8117 16.4746 12.7876 16.3856C12.7635 16.2965 12.7577 16.2036 12.7705 16.1122C12.7833 16.0209 12.8144 15.933 12.862 15.854C12.9095 15.775 12.9726 15.7064 13.0474 15.6524C13.1221 15.5984 13.2071 15.56 13.297 15.5397C13.387 15.5193 13.4801 15.5173 13.5709 15.5339ZM22.6509 31.0422C22.7146 31.0196 22.7676 30.9742 22.7999 30.9148C22.8321 30.8554 22.8412 30.7861 22.8255 30.7204C22.8097 30.6547 22.7702 30.5971 22.7145 30.5588C22.6588 30.5204 22.5909 30.5041 22.5239 30.5128L22.4121 30.5275C22.3415 30.5381 22.2394 30.554 22.1117 30.5798C21.9582 30.6103 21.8056 30.6455 21.6543 30.6856C21.4785 30.7305 21.2833 30.7905 21.0706 30.8606C20.8596 30.9343 20.6308 31.0175 20.3944 31.1208C20.1445 31.2278 19.8997 31.3462 19.6607 31.4758C19.409 31.6081 19.1588 31.7644 18.9065 31.9296C18.6578 32.0993 18.4085 32.2812 18.1717 32.4802L17.9938 32.6299C17.9353 32.6808 17.8793 32.7341 17.8219 32.7862C17.706 32.8896 17.5967 32.9986 17.4891 33.1086C17.277 33.324 17.076 33.5502 16.8871 33.7862C16.7911 33.8991 16.7079 34.0176 16.6224 34.1318C16.5355 34.2454 16.4584 34.3611 16.3835 34.4746C16.2282 34.6989 16.103 34.9231 15.9813 35.1284C15.8722 35.3384 15.7614 35.5294 15.6838 35.7056C15.6034 35.8809 15.526 36.0331 15.4768 36.162L15.3117 36.5667C15.2808 36.6438 15.2574 36.7237 15.242 36.8054C15.1214 37.4625 15.5563 38.0931 16.2135 38.2137C16.8706 38.3343 17.5011 37.8993 17.6218 37.2422L17.6272 37.2126L17.6896 36.8727C17.7062 36.7625 17.7424 36.6356 17.7758 36.4852C17.8065 36.3334 17.8627 36.1718 17.9124 35.988C17.974 35.8107 18.0341 35.6127 18.1189 35.4135C18.1588 35.3123 18.2 35.2079 18.2498 35.1055C18.2982 35.0022 18.3438 34.8933 18.4012 34.7894C18.5123 34.5696 18.6347 34.3558 18.768 34.1488C18.836 34.0423 18.9058 33.9351 18.9825 33.8321C19.0202 33.7802 19.0567 33.7267 19.0959 33.6752L19.216 33.5225C19.3763 33.3179 19.5518 33.1242 19.7313 32.9373C19.9144 32.7549 20.0997 32.5764 20.2925 32.4181C20.4766 32.2624 20.6678 32.1153 20.8656 31.9774C21.0542 31.8434 21.2409 31.7282 21.4151 31.6233C21.5909 31.5222 21.755 31.4315 21.9037 31.359C22.0315 31.2951 22.1613 31.2352 22.2929 31.1795C22.3767 31.1437 22.4614 31.1102 22.5469 31.0788L22.6334 31.0483L22.6509 31.0422ZM17.9487 26.4093C17.973 26.4265 18.0029 26.434 18.0324 26.4305C18.062 26.427 18.0892 26.4126 18.1088 26.3902C18.1284 26.3677 18.139 26.3388 18.1386 26.3091C18.1381 26.2793 18.1266 26.2507 18.1063 26.2289L18.0601 26.1801C18.0174 26.1366 17.9733 26.0945 17.9278 26.0538C17.8115 25.9486 17.6371 25.8083 17.4084 25.6638C17.2843 25.5864 17.1564 25.5153 17.0252 25.4508C16.8839 25.3843 16.7318 25.3165 16.5678 25.2624C16.3991 25.2039 16.2264 25.1572 16.0511 25.1227C15.8683 25.0859 15.6832 25.0618 15.497 25.0506C15.403 25.0426 15.3091 25.0448 15.2146 25.042C15.1208 25.0438 15.027 25.0478 14.9338 25.0524C14.8415 25.0615 14.7488 25.0687 14.6581 25.0803C14.5681 25.0944 14.4782 25.1069 14.3907 25.123L14.1346 25.178L13.8931 25.2441C13.8138 25.2647 13.7409 25.2932 13.6677 25.3165C13.595 25.3405 13.5247 25.3645 13.4598 25.3916C13.3281 25.4431 13.2071 25.4916 13.1044 25.5414C13.0001 25.5892 12.9086 25.6309 12.8372 25.6702L12.6085 25.7901C12.5298 25.8315 12.4605 25.8887 12.4052 25.9583C12.35 26.0279 12.3098 26.1083 12.2874 26.1943C12.2649 26.2803 12.2607 26.3701 12.2749 26.4578C12.2892 26.5456 12.3216 26.6294 12.3701 26.7039C12.4186 26.7784 12.4821 26.8419 12.5566 26.8904C12.6311 26.939 12.7148 26.9714 12.8026 26.9857C12.8903 27 12.9801 26.9958 13.0661 26.9734C13.1521 26.951 13.2325 26.9108 13.3021 26.8556L13.3178 26.8431L13.4847 26.7105C13.5373 26.6663 13.6041 26.6195 13.6809 26.5649C13.7568 26.5076 13.8458 26.4513 13.9436 26.3894C13.9938 26.3565 14.0454 26.3258 14.0982 26.2975C14.1526 26.2682 14.2077 26.2325 14.267 26.2049L14.4491 26.1151L14.6438 26.0325C14.7107 26.0066 14.7796 25.9836 14.8494 25.9579C14.9196 25.935 14.9916 25.9156 15.0643 25.8935C15.1375 25.876 15.2118 25.8582 15.2869 25.8421C15.3622 25.8306 15.4383 25.8133 15.5149 25.8056C15.6683 25.7856 15.8229 25.7763 15.9776 25.7777C16.1316 25.7787 16.2842 25.7901 16.4312 25.812C16.5791 25.831 16.72 25.8645 16.854 25.8986C16.9871 25.9355 17.1121 25.9772 17.2258 26.0214C17.4527 26.1108 17.6349 26.2074 17.757 26.2819C17.8185 26.3188 17.8648 26.3502 17.8959 26.3715L17.9414 26.4042L17.9487 26.4093ZM35.8077 37.6547C36.1802 38.2071 36.9299 38.353 37.4823 37.9807C38.0347 37.6083 38.1806 36.8585 37.8083 36.3061L37.5485 35.9207C37.5108 35.8629 37.4514 35.7819 37.3943 35.7014L37.2046 35.4371C37.137 35.3422 37.0632 35.2539 36.9864 35.1542C36.9088 35.0566 36.8305 34.9517 36.7408 34.8487L36.4661 34.5248L36.161 34.1899C35.948 33.9641 35.7196 33.7311 35.4745 33.5011C35.2242 33.265 34.9664 33.0371 34.7015 32.8175C34.568 32.7043 34.4276 32.5977 34.2902 32.4871C34.1505 32.3794 34.0082 32.2741 33.8667 32.1688C33.5795 31.9632 33.2904 31.7628 32.9983 31.5785C32.7086 31.3909 32.4155 31.2203 32.1316 31.0585C31.6138 30.7683 31.0822 30.5034 30.5387 30.2648C30.0625 30.0571 29.6584 29.9048 29.3713 29.8066C29.2599 29.7679 29.1479 29.7312 29.0353 29.6965L28.9108 29.6593C28.8452 29.6394 28.7744 29.6449 28.7127 29.6748C28.6509 29.7046 28.6026 29.7566 28.5773 29.8204C28.5521 29.8841 28.5518 29.9551 28.5764 30.0191C28.601 30.0831 28.6488 30.1356 28.7102 30.166L28.7236 30.1727L28.8247 30.2232C28.8925 30.2578 28.9926 30.3096 29.1186 30.3795C29.3712 30.518 29.7275 30.7281 30.1403 31.0003C30.6081 31.3107 31.0605 31.6436 31.4961 31.9978C31.7326 32.1932 31.9746 32.3965 32.2095 32.6142C32.447 32.8287 32.6779 33.0567 32.9044 33.2867C33.0154 33.4041 33.1266 33.5206 33.2348 33.6387C33.3405 33.7593 33.4491 33.8755 33.55 33.9968C33.7494 34.2306 33.9413 34.4707 34.1254 34.7168C34.3043 34.9547 34.4666 35.1909 34.6157 35.4165L34.8266 35.7483L35.0117 36.0643C35.0726 36.1641 35.1227 36.2647 35.1736 36.3579C35.2223 36.4512 35.2749 36.5413 35.3129 36.6223L35.4221 36.849C35.4563 36.9208 35.4857 36.9768 35.5171 37.0492L35.7071 37.4733C35.7357 37.5364 35.7693 37.597 35.8077 37.6547ZM30.5295 21.8657C30.5343 21.8957 30.5503 21.9227 30.5743 21.9414C30.5982 21.96 30.6283 21.969 30.6585 21.9664C30.6887 21.9638 30.7169 21.9499 30.7373 21.9275C30.7578 21.9051 30.769 21.8758 30.7687 21.8454C30.7687 21.8454 30.7679 21.8076 30.7738 21.7512C30.775 21.7231 30.7806 21.6847 30.7877 21.6396C30.7943 21.5946 30.8005 21.5433 30.8155 21.4857C30.83 21.4282 30.8402 21.3643 30.8615 21.2959L30.931 21.0758C30.9937 20.9224 31.0561 20.7474 31.157 20.5692C31.2429 20.3854 31.3717 20.203 31.4951 20.0067C31.564 19.9123 31.64 19.8187 31.7143 19.7215L31.8276 19.575L31.9567 19.4353L32.2202 19.1505C32.3141 19.0586 32.4155 18.9709 32.5137 18.8799L32.6626 18.744L32.7372 18.6758L32.8177 18.6129L33.1416 18.3622C33.3504 18.1881 33.5889 18.0472 33.8113 17.8966L33.9788 17.7859C34.0333 17.748 34.09 17.7131 34.1485 17.6816L34.4904 17.4894C34.7149 17.3639 34.9268 17.2368 35.1445 17.1403L35.7446 16.8524L35.8805 16.787C35.9257 16.767 35.9712 16.7497 36.0146 16.7316L36.2628 16.6305L36.6653 16.4663L37.0152 16.3234L37.0468 16.3107C37.1269 16.2778 37.1994 16.229 37.26 16.1672C37.3206 16.1054 37.368 16.0319 37.3992 15.9511C37.4304 15.8704 37.4448 15.7841 37.4415 15.6976C37.4383 15.6111 37.4174 15.5262 37.3802 15.448C37.343 15.3699 37.2902 15.3001 37.2251 15.243C37.16 15.186 37.084 15.1428 37.0016 15.1161C36.9193 15.0894 36.8324 15.0798 36.7462 15.0879C36.66 15.0959 36.5763 15.1215 36.5004 15.163L36.1482 15.3554L35.7451 15.5761L35.4976 15.7117C35.4543 15.7359 35.4092 15.7594 35.3641 15.7858L35.2276 15.8714L34.629 16.2475C34.414 16.3743 34.2012 16.5358 33.9789 16.6959C33.8663 16.7774 33.7538 16.859 33.6413 16.9405C33.5835 16.9803 33.528 17.0249 33.4736 17.0719L33.308 17.2104C33.0883 17.3983 32.8565 17.5747 32.6513 17.788L32.3368 18.0949L32.2591 18.1716L32.1867 18.2543L32.0429 18.4188C31.9484 18.5286 31.8518 18.6342 31.7626 18.7442L31.5132 19.0836L31.3926 19.249L31.2873 19.4218C31.2187 19.5361 31.1492 19.6457 31.0869 19.7558C30.9757 19.9852 30.862 20.195 30.7903 20.4064C30.7045 20.6101 30.6567 20.81 30.6089 20.9825L30.5605 21.2308C30.5461 21.3073 30.5422 21.3802 30.5339 21.4443C30.5251 21.5083 30.5243 21.5674 30.5227 21.6183C30.5208 21.6689 30.5194 21.712 30.5219 21.7502C30.5239 21.8265 30.5288 21.8593 30.5288 21.8593L30.5295 21.8657ZM34.7694 25.4817C34.7862 25.5228 34.8186 25.5556 34.8595 25.5728C34.9003 25.59 34.9464 25.5902 34.9875 25.5734L35.2225 25.4775C35.2985 25.4433 35.3848 25.4209 35.4851 25.3861C35.5823 25.3501 35.7041 25.326 35.8287 25.2909C35.9572 25.2667 36.0941 25.2355 36.241 25.2216L36.3517 25.2082C36.3897 25.2061 36.4276 25.2041 36.4656 25.2021L36.5811 25.1956L36.6988 25.1966L36.8177 25.1979L36.9378 25.2071C37.018 25.2112 37.0987 25.2223 37.1794 25.2347C37.3408 25.2568 37.5013 25.297 37.6587 25.3408C37.815 25.3916 37.9689 25.4449 38.1144 25.5139C38.261 25.5785 38.3996 25.6557 38.5304 25.7335C38.7676 25.8786 38.9905 26.0457 39.1962 26.2327C39.3397 26.3619 39.474 26.5009 39.5983 26.6486C39.6415 26.7005 39.6731 26.7413 39.6914 26.7668C39.7126 26.7951 39.7126 26.7992 39.7103 26.7963C39.8376 26.9431 40.0179 27.0333 40.2117 27.0471C40.4054 27.0609 40.5968 26.9972 40.7435 26.8699C40.8903 26.7427 40.9805 26.5623 40.9943 26.3686C41.0081 26.1748 40.9444 25.9835 40.8172 25.8367C40.7945 25.8133 40.771 25.7907 40.7466 25.7691C40.691 25.7188 40.6339 25.6703 40.5755 25.6234C40.3779 25.4649 40.1697 25.3201 39.9523 25.19C39.6499 25.0072 39.3309 24.8536 38.9995 24.731C38.8171 24.6656 38.6267 24.6046 38.4284 24.5596C38.2317 24.5105 38.0267 24.4806 37.8233 24.4569C37.6183 24.4401 37.4138 24.4308 37.2134 24.4418C37.1133 24.446 37.0145 24.4522 36.9176 24.4655L36.7735 24.4828L36.633 24.5084L36.4958 24.5344L36.3632 24.5678L36.2342 24.6007L36.1107 24.6403C35.9476 24.689 35.801 24.7532 35.6654 24.8077C35.5335 24.8733 35.4126 24.9232 35.3083 24.9858C35.2053 25.0451 35.1092 25.094 35.0452 25.1394L34.8327 25.2783C34.8003 25.2997 34.7762 25.3316 34.7647 25.3687C34.7531 25.4058 34.7548 25.4458 34.7694 25.4817ZM20.4799 24.0151C20.5316 24.0607 20.5987 24.0851 20.6677 24.0833C20.7367 24.0815 20.8024 24.0537 20.8517 24.0054C20.901 23.9572 20.9303 23.8921 20.9337 23.8232C20.937 23.7543 20.9142 23.6867 20.8698 23.6339L20.7761 23.5221C20.6892 23.421 20.5999 23.3218 20.5086 23.2247C20.3678 23.0744 20.2232 22.9277 20.0749 22.7849C19.9041 22.6183 19.7048 22.438 19.4834 22.2444C19.2594 22.0546 19.0147 21.8495 18.7441 21.6472C18.4614 21.432 18.1711 21.2271 17.8737 21.0327C17.7182 20.9319 17.5598 20.8293 17.395 20.7322C17.2323 20.6313 17.063 20.5371 16.8921 20.4413C16.7218 20.3443 16.5444 20.2574 16.3685 20.1642C16.1893 20.0785 16.0102 19.9888 15.8274 19.9071C15.4616 19.7441 15.0895 19.5898 14.7144 19.4591L14.4342 19.3604C14.3406 19.3292 14.2465 19.3015 14.1533 19.2722L13.8747 19.1861L13.5968 19.1116L13.3226 19.0389L13.051 18.9775C12.8716 18.9375 12.6956 18.8968 12.5223 18.8688C12.3493 18.8397 12.1811 18.8041 12.0171 18.7832L11.5412 18.7198C11.3883 18.7015 11.2411 18.6916 11.101 18.6783C10.9608 18.6662 10.8275 18.6526 10.7023 18.6494C10.4519 18.6406 10.232 18.6242 10.0518 18.627L9.48347 18.6287C9.42507 18.6293 9.35906 18.634 9.29958 18.6434C8.64118 18.747 8.19148 19.3648 8.29509 20.0232C8.3987 20.6816 9.01648 21.1313 9.67488 21.0276L9.71365 21.0215L10.1867 20.9471C10.3377 20.9206 10.5218 20.9076 10.7338 20.8816C10.8398 20.8674 10.9527 20.8622 11.0721 20.8542C11.1915 20.8475 11.3175 20.8358 11.4489 20.8315L11.8598 20.823C12.0023 20.8187 12.1489 20.8277 12.3008 20.8294C12.4528 20.8299 12.608 20.8421 12.7674 20.8525L13.0093 20.869L13.2551 20.8954L13.5057 20.9225L13.759 20.9601C13.8439 20.9731 13.9301 20.9844 14.0159 20.9989L14.2741 21.0477C14.621 21.1112 14.9701 21.1972 15.3184 21.2918C15.4926 21.3393 15.6645 21.395 15.8376 21.4469C16.0076 21.5065 16.1802 21.5599 16.3473 21.6238C16.5149 21.6867 16.6821 21.7483 16.844 21.8175C17.0079 21.8827 17.1667 21.9542 17.3234 22.0245C17.6249 22.1613 17.9213 22.3089 18.2122 22.4671C18.492 22.6159 18.7483 22.7715 18.9849 22.9166C19.2188 23.0652 19.4319 23.2055 19.6154 23.3367C19.7746 23.4489 19.9309 23.5652 20.0841 23.6855C20.1822 23.7621 20.2787 23.8409 20.3733 23.9218L20.4695 24.0062L20.4799 24.0151ZM32.6279 23.3606C32.5751 23.4043 32.5406 23.4662 32.5312 23.5342C32.5219 23.6021 32.5383 23.6711 32.5774 23.7275C32.6164 23.7838 32.6752 23.8235 32.7421 23.8386C32.809 23.8537 32.8791 23.8432 32.9386 23.8091C32.9386 23.8091 32.9798 23.7854 33.0503 23.7495C33.1198 23.7124 33.2292 23.6589 33.3677 23.591C33.5082 23.526 33.6768 23.4441 33.876 23.3599L34.1918 23.2247L34.5466 23.0849L34.7354 23.0108L34.9343 22.9397L35.3509 22.7908C35.5757 22.7189 35.8005 22.6468 36.0254 22.5748L36.2621 22.508L36.7459 22.3722C36.9097 22.3284 37.078 22.2915 37.2457 22.2503C37.4144 22.2123 37.5813 22.1646 37.7537 22.1339L38.2685 22.0329L38.5255 21.9824L38.7843 21.9435L39.2967 21.8662C39.4653 21.8372 39.6351 21.8229 39.8019 21.8055L40.2948 21.7547C40.4558 21.7348 40.6157 21.7276 40.7719 21.72L41.2283 21.6961C41.5237 21.6738 41.8047 21.6806 42.0626 21.68L42.4322 21.6801C42.5494 21.6797 42.6603 21.6787 42.7649 21.6873L43.3047 21.718L43.7729 21.7441L43.8374 21.7478C43.8982 21.7507 43.9601 21.7491 44.0226 21.7426C44.686 21.6736 45.1679 21.08 45.099 20.4165C45.0301 19.7531 44.4364 19.2712 43.7729 19.3401L43.25 19.3945L42.652 19.4576C42.5367 19.4673 42.4147 19.4877 42.2863 19.5088L41.8825 19.5739C41.6015 19.6201 41.2972 19.6633 40.9801 19.7386L40.4917 19.8444C40.3253 19.8801 40.1554 19.9159 39.9852 19.965L39.4662 20.1049C39.2912 20.1524 39.1137 20.1974 38.9385 20.2571L38.4078 20.4273L38.1415 20.513L37.8782 20.6103L37.3538 20.8044C37.1789 20.866 37.0103 20.9444 36.8405 21.0129C36.6717 21.0845 36.5032 21.1515 36.3395 21.2248L35.8583 21.448L35.6242 21.5571L35.3979 21.6721L34.9617 21.8941C34.7621 22.004 34.5626 22.114 34.3631 22.224L34.1803 22.3322C34.0665 22.3999 33.9527 22.4676 33.8388 22.5353L33.5358 22.7274C33.3455 22.847 33.1842 22.9602 33.0503 23.0508C32.9178 23.1446 32.8141 23.218 32.7419 23.273C32.6689 23.3266 32.6357 23.3538 32.6357 23.3538L32.6279 23.3606ZM29.5319 26.1583C29.5223 26.1929 29.5197 26.2291 29.5241 26.2647C29.5285 26.3004 29.5399 26.3348 29.5576 26.366C29.5754 26.3972 29.5991 26.4247 29.6274 26.4468C29.6557 26.4688 29.6881 26.4851 29.7227 26.4946L29.7316 26.4971L29.8956 26.5424C30.0035 26.5733 30.1625 26.6201 30.3639 26.6849C30.7669 26.8131 31.3392 27.0125 32.0114 27.2853C32.3729 27.4317 32.7309 27.5866 33.0851 27.7498C33.4629 27.9206 33.854 28.1158 34.2549 28.3219C34.6539 28.5319 35.0621 28.7549 35.4667 28.997L35.7711 29.1787L36.0726 29.3686C36.2753 29.4932 36.4723 29.6277 36.6706 29.7597C36.8696 29.8903 37.0606 30.0327 37.2548 30.1676C37.446 30.3068 37.6328 30.4498 37.8193 30.5893C38.001 30.7354 38.1829 30.8773 38.3586 31.0219C38.5311 31.1703 38.7045 31.313 38.869 31.4595C39.0313 31.6086 39.1935 31.7518 39.3469 31.897L39.7894 32.3288L40.1921 32.751C40.3212 32.8876 40.4379 33.0269 40.5541 33.1561C40.6713 33.2845 40.7764 33.4134 40.8756 33.5365C40.9748 33.6595 41.0714 33.7737 41.1575 33.8846C41.3246 34.1106 41.4747 34.3029 41.59 34.4672L41.9455 34.9867L41.9735 35.0278C41.999 35.0646 42.0268 35.1003 42.057 35.1348C42.4951 35.6358 43.2564 35.6868 43.7575 35.2487C44.2586 34.8107 44.3095 34.0493 43.8715 33.5482L43.3963 33.0048C43.2431 32.8342 43.0478 32.6358 42.8292 32.405C42.7174 32.2919 42.594 32.1761 42.4665 32.052L42.2696 31.8621C42.2021 31.7978 42.1295 31.7357 42.0573 31.6704C41.9111 31.5418 41.763 31.4035 41.6023 31.2692L41.1033 30.8571L40.5629 30.4421C40.3766 30.3036 40.182 30.1686 39.9869 30.0283C39.7897 29.8909 39.5844 29.7588 39.3797 29.6215C39.1721 29.4883 38.959 29.3591 38.7463 29.2264C38.5292 29.1007 38.312 28.9722 38.0913 28.8484C37.8679 28.7293 37.6479 28.6031 37.4213 28.4899C37.1953 28.3754 36.971 28.2587 36.7426 28.1528L36.4026 27.9914L36.0614 27.839C35.6086 27.6363 35.1562 27.4547 34.717 27.2862C34.276 27.1219 33.8486 26.9687 33.4385 26.8388C33.0546 26.7143 32.6679 26.5988 32.2787 26.4925C31.5562 26.2946 30.9474 26.1605 30.5181 26.0778C30.3517 26.0453 30.1848 26.0154 30.0174 25.9882L29.8363 25.9607C29.7702 25.9507 29.7027 25.9653 29.6466 26.0017C29.5905 26.0381 29.5497 26.0938 29.5319 26.1583ZM26.7951 18.9286C26.8336 18.9452 26.8771 18.9458 26.916 18.9303C26.9549 18.9148 26.9861 18.8845 27.0027 18.846C27.0027 18.846 27.0471 18.7427 27.1175 18.5642C27.2147 18.3163 27.3061 18.0662 27.3916 17.814C27.4978 17.5005 27.6146 17.1314 27.7223 16.7281C27.7781 16.5202 27.8293 16.3111 27.8759 16.1009C27.9248 15.8856 27.9668 15.6639 28.0048 15.4401C28.0423 15.2163 28.0724 14.9895 28.0955 14.7633C28.1164 14.5366 28.1322 14.3111 28.1344 14.0887C28.136 13.9775 28.1372 13.8678 28.1316 13.7587L28.1258 13.5971L28.1126 13.4375L28.0983 13.2815L28.0767 13.1284C28.0639 13.0299 28.0464 12.9321 28.0244 12.8353L27.9947 12.6961L27.9571 12.5623C27.9325 12.4752 27.9096 12.3923 27.8784 12.3143C27.8487 12.2363 27.8236 12.1628 27.7939 12.0954L27.7058 11.9106C27.6825 11.8597 27.6558 11.8103 27.626 11.7629L27.5608 11.6549L27.5053 11.5651C27.4406 11.4602 27.3534 11.3709 27.25 11.3037C27.1466 11.2365 27.0297 11.193 26.9075 11.1763C26.7853 11.1597 26.661 11.1703 26.5434 11.2074C26.4258 11.2446 26.3179 11.3072 26.2274 11.391C26.1469 11.4655 26.0819 11.5551 26.036 11.6548C25.9901 11.7544 25.9643 11.8621 25.9601 11.9717C25.9559 12.0813 25.9733 12.1907 26.0113 12.2936C26.0494 12.3964 26.1073 12.4908 26.1818 12.5713L26.2007 12.5917L26.2351 12.6289L26.2779 12.6734C26.2956 12.6902 26.3151 12.711 26.3342 12.7386L26.4021 12.8259C26.4264 12.859 26.4489 12.8998 26.476 12.9408C26.5044 12.9808 26.5284 13.0303 26.5551 13.0819L26.597 13.1614L26.6352 13.2508C26.6623 13.3112 26.6896 13.3758 26.7127 13.4471L26.7508 13.5542L26.7844 13.6691L26.819 13.7882L26.8485 13.9142C26.8702 13.9986 26.8866 14.0879 26.9034 14.1792C26.9378 14.3614 26.962 14.5556 26.9827 14.7551C27.0012 14.9551 27.0142 15.161 27.02 15.3691C27.0445 16.2018 26.9678 17.0567 26.8809 17.6931C26.8466 17.9502 26.8061 18.2064 26.7595 18.4615C26.7255 18.6471 26.7032 18.7498 26.7032 18.7498C26.6875 18.8221 26.7245 18.8982 26.7951 18.9286ZM21.3647 15.8286C21.3879 15.8648 21.4242 15.8908 21.4659 15.9011C21.5077 15.9114 21.5518 15.9052 21.5892 15.8839C21.6266 15.8626 21.6543 15.8278 21.6668 15.7866C21.6792 15.7454 21.6754 15.701 21.656 15.6626L21.6385 15.6273L21.5843 15.5241C21.5157 15.398 21.4429 15.2742 21.3662 15.1529C21.1703 14.8396 20.8668 14.4066 20.4466 13.9298C20.2384 13.6897 19.9955 13.4449 19.7308 13.1925C19.4605 12.9469 19.1687 12.6921 18.8454 12.4547C18.7665 12.3926 18.6835 12.3349 18.5996 12.277L18.346 12.1015L18.0819 11.9345L17.9484 11.8504L17.8109 11.772L17.5335 11.6142C17.4395 11.5636 17.3433 11.5166 17.2477 11.4675C17.0577 11.3662 16.8593 11.2816 16.662 11.1927C16.5638 11.1466 16.4631 11.1079 16.3623 11.069L16.0601 10.9514C15.8571 10.8789 15.6522 10.8137 15.4491 10.7463C15.2436 10.6899 15.0395 10.6312 14.8365 10.5786L14.2304 10.4452L13.6384 10.3457C13.4442 10.3187 13.2535 10.2996 13.0677 10.2773C12.8816 10.2517 12.7008 10.2477 12.5252 10.2342C12.3497 10.2232 12.1796 10.2095 12.0172 10.2105L11.5494 10.2039C11.4003 10.1992 11.2607 10.2109 11.1282 10.2134C10.8638 10.2228 10.6322 10.2281 10.4441 10.248L9.84939 10.2977C9.72513 10.308 9.60445 10.3445 9.49522 10.4046C9.38598 10.4648 9.29064 10.5472 9.2154 10.6467C9.14017 10.7461 9.08673 10.8603 9.05856 10.9818C9.03039 11.1032 9.02813 11.2293 9.05193 11.3517C9.07417 11.4661 9.11873 11.5751 9.18307 11.6723C9.24741 11.7695 9.33028 11.8531 9.42693 11.9183C9.52358 11.9835 9.63212 12.029 9.74636 12.0522C9.86061 12.0755 9.97831 12.076 10.0927 12.0537L10.1285 12.0468L10.655 11.9444C10.8226 11.9073 11.0271 11.881 11.2623 11.8466C11.3799 11.8316 11.5052 11.8064 11.6375 11.7966L12.0546 11.7568C12.2004 11.7395 12.3517 11.7358 12.5089 11.7284C12.6658 11.7235 12.8294 11.7083 12.9959 11.7136C13.1627 11.7156 13.335 11.7135 13.5106 11.7186L14.0472 11.7493L14.6 11.809C14.7857 11.8361 14.973 11.8688 15.1633 11.8985C15.3504 11.9392 15.5406 11.9774 15.7301 12.0222L16.0125 12.0981C16.107 12.1231 16.2019 12.1477 16.2943 12.1797C16.4802 12.2402 16.6687 12.2967 16.8499 12.3697C16.9411 12.4047 17.0333 12.4376 17.1236 12.4741L17.3911 12.5899L17.5245 12.6476L17.6543 12.7109L17.9125 12.837L18.1623 12.9724C18.2453 13.017 18.3276 13.0617 18.4062 13.111C18.7282 13.297 19.0238 13.5033 19.3011 13.7046C19.5729 13.9127 19.8261 14.1171 20.0464 14.3214C20.4905 14.7263 20.8239 15.1058 21.041 15.3814C21.1254 15.4873 21.2064 15.5959 21.2838 15.7071L21.3419 15.7934L21.3614 15.8238L21.3647 15.8286ZM27.1964 23.0453C26.6606 23.0453 26.2264 23.4796 26.2264 24.0152C26.2264 24.551 26.6607 24.9852 27.1964 24.9852C27.732 24.9852 28.1663 24.5509 28.1663 24.0152C28.1663 23.4796 27.732 23.0453 27.1964 23.0453ZM24.2232 28.4733C24.159 28.4724 24.0952 28.4843 24.0355 28.5083C23.9759 28.5322 23.9216 28.5678 23.8759 28.6129C23.8301 28.658 23.7938 28.7118 23.769 28.7711C23.7441 28.8304 23.7314 28.894 23.7314 28.9583C23.7314 29.0225 23.7441 29.0861 23.769 29.1454C23.7938 29.2047 23.8301 29.2585 23.8759 29.3036C23.9216 29.3487 23.9759 29.3843 24.0355 29.4083C24.0952 29.4322 24.159 29.4441 24.2232 29.4432C24.3506 29.4414 24.4722 29.3895 24.5617 29.2987C24.6511 29.208 24.7013 29.0857 24.7013 28.9583C24.7013 28.8308 24.6511 28.7085 24.5617 28.6178C24.4722 28.527 24.3506 28.4752 24.2232 28.4733ZM24.8115 20.0212C24.8132 20.0696 24.8334 20.1156 24.868 20.1495C24.9027 20.1834 24.949 20.2027 24.9975 20.2034C25.0459 20.2041 25.0928 20.1861 25.1284 20.1532C25.1639 20.1203 25.1855 20.0749 25.1885 20.0266L25.1988 19.852C25.2048 19.7388 25.2103 19.5738 25.214 19.3638C25.216 19.1539 25.218 18.8989 25.2093 18.6068C25.2011 18.2795 25.1851 17.9523 25.1613 17.6257C25.1344 17.2665 25.0987 16.8774 25.0451 16.467C25.0216 16.2613 24.9859 16.0517 24.9555 15.836C24.9175 15.6219 24.8839 15.4016 24.8385 15.1796C24.7939 14.9574 24.7495 14.731 24.6939 14.5038C24.6437 14.2754 24.5826 14.0464 24.5203 13.8153C24.4613 13.5834 24.3842 13.3542 24.3159 13.1211C24.2378 12.8911 24.1622 12.6586 24.0762 12.4294C23.9861 12.2018 23.9051 11.97 23.8032 11.7471L23.6568 11.4107C23.6068 11.2992 23.5508 11.1908 23.4982 11.0813C23.444 10.9725 23.3934 10.8622 23.3365 10.7558L23.163 10.4395C23.0521 10.2272 22.9223 10.0282 22.8006 9.82872C22.5596 9.4468 22.2971 9.07898 22.0141 8.72706L21.9147 8.6002C21.8808 8.55899 21.8449 8.51993 21.8103 8.48018L21.6044 8.24669C21.4724 8.09024 21.331 7.95196 21.1962 7.81768C20.9337 7.54132 20.6601 7.32227 20.4285 7.11475C20.1834 6.92442 19.9687 6.75733 19.7873 6.62647L19.2001 6.238C19.1065 6.17593 19.0014 6.13345 18.891 6.11312C18.7806 6.09279 18.6672 6.09502 18.5577 6.11968C18.4482 6.14434 18.3448 6.19092 18.2537 6.25662C18.1627 6.32232 18.0859 6.40576 18.028 6.50193C17.9701 6.5981 17.9323 6.705 17.9168 6.81619C17.9013 6.92738 17.9085 7.04055 17.9379 7.14889C17.9673 7.25722 18.0184 7.35848 18.088 7.44655C18.1576 7.53462 18.2443 7.60768 18.3429 7.66134L18.3882 7.68604L18.9138 7.97296C19.0771 8.0712 19.2711 8.19815 19.4957 8.34229C19.7072 8.50391 19.9603 8.67032 20.2065 8.89063C20.333 8.99669 20.4668 9.10567 20.5927 9.23272L20.7899 9.4212C20.8231 9.45343 20.8578 9.48468 20.8906 9.51837L20.9871 9.62257C21.2649 9.91366 21.5257 10.2204 21.7683 10.5414C21.8925 10.7112 22.0254 10.8799 22.1418 11.0641L22.3239 11.3378C22.3841 11.4303 22.4385 11.5273 22.4966 11.6226C22.5531 11.7188 22.6133 11.8137 22.6678 11.9122L22.829 12.2109C22.9409 12.4086 23.034 12.6177 23.1362 12.8225C23.2344 13.0292 23.3234 13.2408 23.4154 13.4505C23.4977 13.6642 23.5893 13.8738 23.6635 14.0885C23.7409 14.302 23.8175 14.5143 23.8836 14.7276C23.955 14.9394 24.0155 15.1518 24.0761 15.3607C24.1378 15.5693 24.1877 15.7776 24.2419 15.9805C24.2884 16.185 24.3401 16.3842 24.3795 16.5805C24.4647 16.9719 24.5312 17.3454 24.5869 17.6914C24.6412 18.0376 24.6837 18.3566 24.7142 18.64C24.7469 18.9234 24.7658 19.1712 24.7813 19.3753C24.795 19.5793 24.8032 19.7399 24.8066 19.8485L24.8109 20.0142L24.8115 20.0212ZM19.5547 29.1374C19.6005 29.1284 19.641 29.1021 19.668 29.064C19.695 29.026 19.7064 28.979 19.6997 28.9328C19.6931 28.8866 19.6689 28.8447 19.6323 28.8158C19.5956 28.7868 19.5493 28.7731 19.5028 28.7774L19.3437 28.7915C19.2419 28.8025 19.0931 28.8198 18.9056 28.8486C18.3886 28.9297 17.8764 29.039 17.3714 29.1762C17.0571 29.2589 16.7203 29.3614 16.3664 29.4789C15.9954 29.6035 15.6284 29.7396 15.2659 29.8872C14.8888 30.042 14.5026 30.2122 14.1176 30.4015C13.9246 30.4954 13.7308 30.592 13.5397 30.6955C13.3462 30.7951 13.1565 30.903 12.9665 31.0112C12.5864 31.2274 12.2153 31.4599 11.8546 31.6969C11.6743 31.8154 11.5004 31.9401 11.3255 32.06C11.1525 32.1821 10.9863 32.3091 10.82 32.431C10.4932 32.6815 10.1801 32.9291 9.89363 33.1763L9.67976 33.3571L9.4782 33.539C9.34675 33.6591 9.21648 33.7724 9.09695 33.8866C8.86072 34.1176 8.6365 34.3236 8.4529 34.5199C8.26706 34.7143 8.09929 34.8797 7.97244 35.0253L7.56482 35.4767C7.48405 35.566 7.42232 35.6709 7.38337 35.7848C7.34443 35.8988 7.32909 36.0195 7.33829 36.1396C7.34749 36.2596 7.38103 36.3766 7.43688 36.4833C7.49273 36.59 7.56972 36.6842 7.66315 36.7602C7.75659 36.8362 7.86451 36.8924 7.98035 36.9253C8.09619 36.9583 8.21753 36.9673 8.33697 36.9518C8.45641 36.9364 8.57145 36.8968 8.67509 36.8354C8.77873 36.7741 8.8688 36.6923 8.93982 36.595L8.95554 36.5735L9.28699 36.12C9.38992 35.9732 9.5282 35.8063 9.68093 35.6089C9.83152 35.4095 10.0182 35.1996 10.2145 34.9626C10.314 34.8454 10.4233 34.7288 10.5336 34.6048L10.7027 34.4166L10.8834 34.2288C11.1252 33.9717 11.392 33.7121 11.672 33.4469C11.8149 33.3178 11.9578 33.1828 12.1074 33.0521C12.2588 32.9237 12.4094 32.7898 12.5666 32.6614C12.881 32.4048 13.2067 32.1503 13.5431 31.9098C13.7114 31.7896 13.8798 31.6689 14.0525 31.5562C14.2225 31.4409 14.395 31.3293 14.5698 31.2215C14.9158 31.0044 15.2655 30.8049 15.6091 30.6202C15.9402 30.4435 16.2768 30.2773 16.6184 30.1218C16.945 29.9744 17.2579 29.8425 17.551 29.7319C18.022 29.5499 18.5027 29.3939 18.9909 29.2647C19.1271 29.229 19.2641 29.1965 19.4017 29.1671L19.545 29.1392L19.5547 29.1374ZM28.7212 32.3475C28.681 32.3744 28.6532 32.4162 28.6438 32.4637C28.6345 32.5112 28.6444 32.5604 28.6714 32.6006L28.6738 32.6042L28.9439 33.0065C29.1791 33.3628 29.4093 33.7222 29.6345 34.0849C30.1947 34.9834 30.9101 36.2017 31.5385 37.4512C31.6942 37.7609 31.8449 38.0731 31.9905 38.3877C32.1319 38.6988 32.2666 39.0058 32.388 39.3044C32.5089 39.6031 32.6194 39.8926 32.7135 40.1678C32.8025 40.423 32.8826 40.6813 32.9536 40.9421C33.0202 41.1814 33.0667 41.399 33.105 41.5899L33.1494 41.8553C33.1618 41.9366 33.1666 42.0094 33.1747 42.0758C33.1931 42.2096 33.1901 42.3073 33.1943 42.3759L33.1988 42.4799L33.201 42.5316C33.207 42.6566 33.2394 42.7789 33.296 42.8905C33.3527 43.0021 33.4322 43.1005 33.5295 43.1792C33.6268 43.2579 33.7396 43.3152 33.8606 43.3472C33.9816 43.3793 34.1079 43.3854 34.2314 43.3652C34.4639 43.3273 34.6718 43.1985 34.8094 43.0072C34.9469 42.816 35.0029 42.5779 34.9649 42.3454L34.9406 42.1963C34.9233 42.1001 34.9049 41.9539 34.8603 41.7837C34.8391 41.6979 34.8187 41.6006 34.7902 41.4996L34.6934 41.1766C34.6184 40.9508 34.5302 40.6998 34.4206 40.4372C34.3054 40.1568 34.1804 39.8806 34.046 39.6089C33.9058 39.3217 33.7489 39.0268 33.5816 38.7267C33.4138 38.4269 33.2332 38.1236 33.0461 37.819C32.8558 37.5136 32.6604 37.2112 32.4602 36.9121C32.2611 36.6145 32.0574 36.3199 31.8492 36.0285C31.6486 35.747 31.4447 35.4678 31.2374 35.1912C30.8707 34.7024 30.495 34.2205 30.1103 33.7457C29.8392 33.4102 29.5633 33.0784 29.283 32.7505L28.9604 32.3791C28.9312 32.3456 28.8908 32.324 28.8468 32.3181C28.8027 32.3123 28.7581 32.3227 28.7212 32.3475ZM35.1558 31.6067C35.1506 31.6132 35.1467 31.6206 35.1443 31.6286C35.142 31.6366 35.1412 31.645 35.1421 31.6532C35.143 31.6615 35.1455 31.6695 35.1495 31.6768C35.1535 31.6841 35.1588 31.6906 35.1653 31.6958L35.1663 31.6966L35.5635 32.0176L36.0148 32.3917C36.1889 32.5361 36.382 32.7036 36.5943 32.8836C36.8039 33.0671 37.0327 33.2635 37.2705 33.476C37.5076 33.6893 37.7597 33.9112 38.0136 34.1487L38.4021 34.5076L38.7938 34.8817C39.0594 35.1312 39.3195 35.394 39.5817 35.6542C39.8457 35.9126 40.0953 36.1844 40.3482 36.4441C40.5969 36.7078 40.8329 36.9745 41.0655 37.228L41.7076 37.9803L42.2515 38.6724C42.4136 38.8899 42.5524 39.0943 42.6804 39.2722C42.8121 39.4484 42.9053 39.6118 42.9878 39.7432L43.244 40.1566L43.2672 40.194C43.3121 40.2662 43.3711 40.3285 43.4408 40.3773C43.5105 40.426 43.5894 40.4601 43.6726 40.4775C43.7558 40.4949 43.8417 40.4952 43.9251 40.4785C44.0085 40.4617 44.0876 40.4283 44.1577 40.3801C44.2277 40.3319 44.2873 40.27 44.3327 40.1981C44.3782 40.1263 44.4086 40.0459 44.4222 39.962C44.4357 39.878 44.4321 39.7922 44.4115 39.7097C44.3909 39.6272 44.3538 39.5497 44.3024 39.4819L43.978 39.0537C43.8741 38.9186 43.7533 38.7491 43.5965 38.5753C43.4424 38.3985 43.273 38.1946 43.0804 37.9819L42.4441 37.3138L41.7091 36.6017C41.4464 36.3647 41.1794 36.1152 40.9009 35.8712C40.6186 35.6316 40.3392 35.3801 40.0475 35.1441C39.7574 34.9063 39.4697 34.6661 39.1784 34.4402L38.7485 34.1013L38.3237 33.7777C38.0463 33.5637 37.7719 33.3649 37.5141 33.1738C37.2557 32.9836 37.0078 32.8086 36.7807 32.6451C36.5511 32.485 36.3424 32.3361 36.1544 32.2082L35.6677 31.8772L35.2399 31.594C35.2268 31.5852 35.211 31.5817 35.1954 31.5841C35.1799 31.5865 35.1657 31.5945 35.1558 31.6067ZM27.1692 21.6956C27.2006 21.7112 27.2386 21.6984 27.2542 21.6672C27.2542 21.6672 27.3864 21.4019 27.6369 20.9455C27.9841 20.3172 28.3476 19.698 28.7269 19.0886C28.9639 18.7117 29.222 18.3048 29.507 17.8826C29.7886 17.4585 30.098 17.0199 30.4218 16.5701C30.7499 16.1233 31.0929 15.6657 31.4564 15.2135L31.7296 14.8731L32.0108 14.5365C32.1968 14.3102 32.3921 14.0907 32.5855 13.8701C32.777 13.6479 32.9809 13.4371 33.1767 13.2214C33.3769 13.0097 33.5805 12.8033 33.7808 12.5976C33.9878 12.3987 34.1884 12.1969 34.394 12.0065C34.6028 11.8195 34.8014 11.6266 35.0094 11.4524C35.4192 11.097 35.8257 10.7686 36.2214 10.4757C36.6156 10.1802 37.0012 9.92403 37.3596 9.69571L37.8812 9.38341C38.0492 9.28975 38.2112 9.20723 38.3615 9.12628C38.4371 9.08692 38.509 9.04591 38.5804 9.01153L38.7885 8.91573L39.1536 8.74679C39.3766 8.65274 39.5545 8.58848 39.6739 8.53995L39.8576 8.46768L39.9089 8.44757C39.9355 8.43702 39.962 8.42511 39.9882 8.41192C40.4653 8.17179 40.6574 7.59034 40.4173 7.11319C40.1771 6.63604 39.5957 6.44395 39.1185 6.68409L38.9121 6.788C38.7784 6.85714 38.5787 6.95245 38.3328 7.08526L37.9337 7.31759L37.7078 7.44962C37.6305 7.49639 37.5539 7.54972 37.473 7.60206C37.3127 7.7088 37.1399 7.81934 36.9628 7.94161L36.4185 8.3419C36.0481 8.62999 35.6549 8.94942 35.2609 9.30753C34.8649 9.66339 34.4653 10.0544 34.0681 10.4709C33.8661 10.6761 33.6763 10.898 33.4763 11.1149C33.2799 11.335 33.0905 11.5651 32.895 11.7926C32.7069 12.0261 32.5162 12.2602 32.3302 12.4986C32.1488 12.7407 31.9594 12.9779 31.7842 13.2251C31.6068 13.4707 31.428 13.7148 31.2596 13.9645C31.1747 14.0882 31.0898 14.212 31.0049 14.3358L30.7592 14.7095C30.4325 15.2055 30.1281 15.7034 29.8388 16.1872C29.5542 16.674 29.2839 17.1464 29.0404 17.6011C28.7935 18.0538 28.5726 18.4881 28.3705 18.8893C28.048 19.5367 27.7423 20.1923 27.4537 20.8556C27.2465 21.3358 27.1385 21.6157 27.1385 21.6157C27.1329 21.6305 27.1329 21.6468 27.1386 21.6616C27.1442 21.6763 27.1551 21.6884 27.1692 21.6956ZM26.92 31.0604C26.8938 31.0512 26.8661 31.0472 26.8384 31.0488C26.8107 31.0503 26.7836 31.0573 26.7586 31.0693C26.7336 31.0813 26.7112 31.0981 26.6928 31.1188C26.6743 31.1395 26.66 31.1636 26.6509 31.1898L26.4511 31.7597L26.2218 32.4139C26.139 32.6701 26.0542 32.9651 25.9568 33.2849L25.8075 33.7854L25.6691 34.3233L25.5229 34.8925C25.4698 35.0863 25.4338 35.2875 25.3871 35.4906C25.2986 35.8978 25.2021 36.3185 25.1295 36.75L25.0106 37.401C24.9726 37.6194 24.9429 37.8399 24.9087 38.06C24.8764 38.2803 24.8399 38.5004 24.8115 38.7205L24.7313 39.3781C24.6729 39.8137 24.6421 40.2444 24.5994 40.6611C24.5661 41.0782 24.536 41.4822 24.5143 41.8659C24.4956 42.2498 24.4755 42.6131 24.4689 42.9493C24.4569 43.2853 24.4554 43.5943 24.453 43.8685C24.4522 44.143 24.4548 44.3826 24.4586 44.5814C24.4631 44.78 24.4675 44.9369 24.4727 45.0464L24.4814 45.2205C24.4876 45.344 24.5195 45.4648 24.5751 45.5753C24.6307 45.6857 24.7088 45.7833 24.8043 45.8618C24.8998 45.9403 25.0107 45.9979 25.1299 46.031C25.249 46.0641 25.3737 46.072 25.4961 46.054C25.6113 46.0371 25.7221 45.9977 25.8221 45.938C25.9222 45.8783 26.0094 45.7994 26.079 45.706C26.1485 45.6125 26.199 45.5063 26.2275 45.3933C26.256 45.2804 26.2619 45.1629 26.245 45.0477L26.2424 45.0295L26.2218 44.8897C26.2079 44.7944 26.19 44.6505 26.1679 44.4661C26.1423 44.2431 26.119 44.0198 26.0981 43.7963C26.0755 43.5361 26.0484 43.2424 26.029 42.9202C26.0042 42.5985 25.99 42.2488 25.9724 41.8785C25.9578 41.5083 25.9493 41.1171 25.9426 40.7121C25.9453 40.3075 25.9345 39.8879 25.9507 39.4627L25.9669 38.8196C25.9739 38.6041 25.9887 38.3884 25.9994 38.1721C26.0121 37.956 26.0201 37.7391 26.0366 37.524L26.091 36.8823C26.1211 36.456 26.1755 36.0399 26.2233 35.6357C26.2497 35.4342 26.2658 35.2337 26.2993 35.041L26.3883 34.4739L26.4725 33.9361L26.57 33.4401C26.6343 33.122 26.6883 32.8297 26.7452 32.5698L26.9107 31.8967L27.055 31.3102C27.0673 31.2592 27.0604 31.2055 27.0355 31.1593C27.0105 31.1132 26.9694 31.0779 26.92 31.0604ZM25.3669 30.7775C25.366 30.7761 25.3646 30.7751 25.363 30.7747C25.3614 30.7744 25.3597 30.7746 25.3583 30.7755C25.3583 30.7755 25.3285 30.7926 25.2744 30.8289C25.2198 30.8648 25.1423 30.92 25.0464 30.9947L24.8891 31.1209L24.711 31.278C24.6457 31.3329 24.5842 31.3985 24.5149 31.4644C24.4465 31.5309 24.3736 31.6004 24.3042 31.6784L24.0817 31.9186L23.8572 32.1873C23.8189 32.2338 23.7787 32.2801 23.7405 32.3285L23.628 32.4783L23.3957 32.7889L23.1722 33.1215C23.0962 33.2339 23.0188 33.348 22.9503 33.4678C22.8096 33.7057 22.6578 33.9447 22.5316 34.196L22.3338 34.5694C22.2658 34.6931 22.2131 34.8219 22.1524 34.947C22.0366 35.1989 21.9138 35.4453 21.8199 35.692C21.7218 35.9373 21.6205 36.1737 21.5357 36.4013L21.3094 37.0471L21.2097 37.3352L21.1315 37.5978L21.0043 38.0256L20.8933 38.3993C20.8688 38.4822 20.8616 38.5692 20.8721 38.6549C20.8826 38.7407 20.9107 38.8234 20.9545 38.8978C20.9984 38.9723 21.057 39.0369 21.1269 39.0877C21.1968 39.1385 21.2764 39.1744 21.3608 39.1931C21.4451 39.2118 21.5324 39.213 21.6172 39.1966C21.7021 39.1801 21.7826 39.1464 21.8538 39.0975C21.925 39.0486 21.9855 38.9855 22.0313 38.9123C22.0771 38.839 22.1074 38.7571 22.1202 38.6717L22.1241 38.6453L22.1787 38.2802L22.2414 37.8601L22.28 37.6011L22.3354 37.3173L22.4624 36.6772C22.5119 36.4511 22.5758 36.2162 22.6357 35.9702C22.6916 35.7225 22.7743 35.476 22.8503 35.221C22.8908 35.0947 22.9237 34.9635 22.9714 34.8383L23.1087 34.458C23.1949 34.2007 23.3064 33.9556 23.4085 33.7089C23.4578 33.5845 23.5159 33.4661 23.5732 33.3488L23.7419 33L23.9219 32.6718L24.0095 32.5122C24.0396 32.4605 24.0718 32.4109 24.1022 32.3611L24.2818 32.0714L24.4634 31.8097C24.5202 31.7242 24.5807 31.6475 24.6379 31.5737C24.6958 31.5008 24.747 31.4275 24.8026 31.3658L24.9544 31.1882L25.0901 31.0435C25.1542 30.9763 25.2209 30.9116 25.2901 30.8496C25.3379 30.8066 25.3652 30.7853 25.3652 30.7853C25.3677 30.7838 25.3685 30.7803 25.3669 30.7775Z" fill="#FFB636"/>
<path d="M26.2264 27.8105C26.2264 27.5812 26.3175 27.3613 26.4796 27.1991C26.6418 27.037 26.8617 26.9459 27.091 26.9459C27.3203 26.9459 27.5402 27.037 27.7024 27.1992C27.8645 27.3613 27.9556 27.5813 27.9556 27.8106C27.9556 27.9241 27.9332 28.0365 27.8897 28.1414C27.8463 28.2463 27.7826 28.3416 27.7023 28.4219C27.622 28.5022 27.5267 28.5659 27.4218 28.6093C27.3169 28.6528 27.2045 28.6751 27.0909 28.6751C26.9774 28.6751 26.865 28.6527 26.7601 28.6093C26.6552 28.5658 26.5599 28.5021 26.4796 28.4219C26.3993 28.3416 26.3356 28.2462 26.2922 28.1413C26.2487 28.0364 26.2264 27.924 26.2264 27.8105Z" fill="#F9F8F2"/>
<path d="M30.2691 28.2954C30.27 28.3596 30.2581 28.4234 30.2341 28.4831C30.2102 28.5427 30.1746 28.597 30.1295 28.6427C30.0844 28.6885 30.0306 28.7249 29.9713 28.7497C29.912 28.7745 29.8484 28.7872 29.7841 28.7872C29.7199 28.7872 29.6563 28.7745 29.597 28.7497C29.5377 28.7249 29.4839 28.6885 29.4388 28.6427C29.3937 28.597 29.3581 28.5427 29.3341 28.4831C29.3102 28.4234 29.2983 28.3596 29.2992 28.2954C29.301 28.168 29.3529 28.0464 29.4437 27.9569C29.5344 27.8675 29.6567 27.8173 29.7841 27.8173C29.9116 27.8173 30.0339 27.8675 30.1246 27.9569C30.2154 28.0464 30.2672 28.168 30.2691 28.2954ZM30.2691 23.961C30.2048 23.9601 30.141 23.972 30.0814 23.9959C30.0217 24.0199 29.9675 24.0555 29.9217 24.1006C29.8759 24.1457 29.8396 24.1995 29.8148 24.2587C29.79 24.318 29.7772 24.3817 29.7772 24.4459C29.7772 24.5102 29.79 24.5738 29.8148 24.6331C29.8396 24.6924 29.8759 24.7461 29.9217 24.7913C29.9675 24.8364 30.0217 24.872 30.0814 24.8959C30.141 24.9199 30.2048 24.9317 30.2691 24.9308C30.3965 24.929 30.5181 24.8771 30.6075 24.7864C30.697 24.6957 30.7471 24.5734 30.7471 24.4459C30.7471 24.3185 30.697 24.1962 30.6075 24.1054C30.5181 24.0147 30.3965 23.9628 30.2691 23.961ZM25.3618 21.1565C25.2976 21.1556 25.2338 21.1675 25.1741 21.1914C25.1145 21.2154 25.0602 21.251 25.0145 21.2961C24.9687 21.3412 24.9324 21.395 24.9076 21.4543C24.8828 21.5135 24.87 21.5772 24.87 21.6414C24.87 21.7057 24.8828 21.7693 24.9076 21.8286C24.9324 21.8879 24.9687 21.9417 25.0145 21.9868C25.0602 22.0319 25.1145 22.0675 25.1741 22.0914C25.2338 22.1154 25.2976 22.1273 25.3618 22.1263C25.4892 22.1245 25.6108 22.0727 25.7003 21.9819C25.7898 21.8912 25.8399 21.7689 25.8399 21.6414C25.8399 21.514 25.7898 21.3917 25.7003 21.301C25.6108 21.2102 25.4892 21.1583 25.3618 21.1565ZM22.6417 24.6474C21.7683 24.6474 21.0603 25.3554 21.0603 26.2289C21.0603 27.1023 21.7683 27.8103 22.6417 27.8103C23.5151 27.8103 24.2232 27.1023 24.2232 26.2289C24.2233 25.3555 23.5151 24.6474 22.6417 24.6474ZM8.26017 31.6451C8.48947 31.6451 8.70938 31.554 8.87152 31.3918C9.03365 31.2297 9.12473 31.0097 9.12472 30.7804C9.12471 30.5511 9.0336 30.3312 8.87145 30.1691C8.7093 30.007 8.48938 29.9159 8.26007 29.9159C8.03076 29.9159 7.81086 30.007 7.64872 30.1692C7.48659 30.3313 7.39551 30.5512 7.39552 30.7805C7.39553 31.0098 7.48664 31.2298 7.64879 31.3919C7.81094 31.554 8.03086 31.6451 8.26017 31.6451ZM44.6459 26.2904C44.8752 26.2904 45.0951 26.1993 45.2573 26.0371C45.4194 25.875 45.5105 25.6551 45.5105 25.4258C45.5105 25.1964 45.4193 24.9765 45.2572 24.8144C45.095 24.6523 44.8751 24.5612 44.6458 24.5612C44.5323 24.5612 44.4198 24.5836 44.3149 24.627C44.2101 24.6705 44.1147 24.7342 44.0345 24.8145C43.9542 24.8948 43.8905 24.9901 43.8471 25.095C43.8036 25.1999 43.7813 25.3123 43.7813 25.4259C43.7813 25.5394 43.8036 25.6518 43.8471 25.7567C43.8906 25.8616 43.9542 25.9569 44.0345 26.0372C44.1148 26.1175 44.2101 26.1812 44.315 26.2246C44.4199 26.2681 44.5324 26.2904 44.6459 26.2904ZM40.2639 41.5481C40.4932 41.5481 40.7131 41.457 40.8752 41.2949C41.0374 41.1327 41.1284 40.9128 41.1284 40.6835C41.1284 40.4542 41.0373 40.2343 40.8752 40.0721C40.713 39.91 40.4931 39.8189 40.2638 39.8189C40.1502 39.8189 40.0378 39.8413 39.9329 39.8848C39.828 39.9282 39.7327 39.9919 39.6524 40.0722C39.5722 40.1525 39.5085 40.2478 39.465 40.3527C39.4216 40.4576 39.3992 40.57 39.3992 40.6836C39.3992 40.7971 39.4216 40.9095 39.4651 41.0144C39.5085 41.1193 39.5722 41.2146 39.6525 41.2949C39.7328 41.3752 39.8281 41.4389 39.933 41.4823C40.0379 41.5258 40.1503 41.5481 40.2639 41.5481ZM16.4693 41.5481C16.5829 41.5481 16.6953 41.5257 16.8002 41.4823C16.9051 41.4388 17.0004 41.3751 17.0807 41.2949C17.161 41.2146 17.2247 41.1192 17.2681 41.0143C17.3115 40.9094 17.3339 40.797 17.3339 40.6835C17.3339 40.5699 17.3115 40.4575 17.2681 40.3526C17.2246 40.2477 17.1609 40.1524 17.0806 40.0721C17.0003 39.9918 16.905 39.9282 16.8001 39.8847C16.6952 39.8413 16.5828 39.8189 16.4693 39.8189C16.2399 39.8189 16.02 39.91 15.8579 40.0722C15.6958 40.2343 15.6047 40.4543 15.6047 40.6836C15.6047 40.9129 15.6958 41.1328 15.858 41.2949C16.0201 41.4571 16.24 41.5481 16.4693 41.5481ZM30.6486 12.0368C30.878 12.0368 31.0979 11.9457 31.26 11.7835C31.4221 11.6214 31.5132 11.4014 31.5132 11.1721C31.5132 10.9428 31.4221 10.7229 31.2599 10.5608C31.0978 10.3987 30.8779 10.3076 30.6485 10.3076C30.535 10.3076 30.4226 10.33 30.3177 10.3734C30.2128 10.4169 30.1175 10.4806 30.0372 10.5609C29.9569 10.6412 29.8932 10.7365 29.8498 10.8414C29.8063 10.9463 29.784 11.0587 29.784 11.1722C29.784 11.2858 29.8064 11.3982 29.8498 11.5031C29.8933 11.608 29.957 11.7033 30.0373 11.7836C30.1176 11.8639 30.2129 11.9276 30.3178 11.971C30.4227 12.0144 30.5351 12.0368 30.6486 12.0368ZM26.2264 6.77908C26.3399 6.77907 26.4523 6.7567 26.5572 6.71324C26.6621 6.66979 26.7575 6.6061 26.8377 6.52581C26.918 6.44552 26.9817 6.3502 27.0251 6.2453C27.0686 6.1404 27.0909 6.02797 27.0909 5.91443C27.0909 5.80089 27.0686 5.68846 27.0251 5.58356C26.9816 5.47867 26.918 5.38336 26.8377 5.30308C26.7574 5.2228 26.6621 5.15912 26.5572 5.11567C26.4523 5.07223 26.3398 5.04987 26.2263 5.04988C25.997 5.04989 25.7771 5.14099 25.6149 5.30315C25.4528 5.4653 25.3617 5.68522 25.3617 5.91453C25.3617 6.14383 25.4528 6.36374 25.615 6.52588C25.7772 6.68801 25.9971 6.77909 26.2264 6.77908ZM41.1284 5.91462C41.242 5.91462 41.3544 5.89225 41.4593 5.84879C41.5642 5.80534 41.6595 5.74164 41.7398 5.66135C41.8201 5.58106 41.8837 5.48575 41.9272 5.38085C41.9706 5.27595 41.993 5.16352 41.993 5.04998C41.993 4.93643 41.9706 4.82401 41.9271 4.71911C41.8837 4.61422 41.82 4.51891 41.7397 4.43863C41.6594 4.35834 41.5641 4.29466 41.4592 4.25122C41.3543 4.20778 41.2419 4.18542 41.1283 4.18542C40.899 4.18544 40.6791 4.27654 40.517 4.43869C40.3548 4.60085 40.2638 4.82077 40.2638 5.05007C40.2638 5.27938 40.3549 5.49929 40.5171 5.66142C40.6792 5.82356 40.8991 5.91464 41.1284 5.91462ZM9.12472 7.57585C9.23826 7.57585 9.35069 7.55348 9.45558 7.51002C9.56048 7.46657 9.65579 7.40287 9.73607 7.32258C9.81635 7.24229 9.88003 7.14698 9.92347 7.04208C9.96692 6.93718 9.98928 6.82475 9.98927 6.71121C9.98926 6.59767 9.96689 6.48524 9.92344 6.38034C9.87998 6.27545 9.81629 6.18014 9.736 6.09986C9.65571 6.01957 9.56039 5.95589 9.45549 5.91245C9.35059 5.86901 9.23816 5.84665 9.12462 5.84666C8.89532 5.84667 8.67541 5.93777 8.51327 6.09992C8.35114 6.26208 8.26006 6.482 8.26007 6.7113C8.26008 6.94061 8.35119 7.16052 8.51334 7.32265C8.67549 7.48479 8.89541 7.57587 9.12472 7.57585ZM7.39572 24.8798C7.50926 24.8798 7.62168 24.8574 7.72658 24.8139C7.83148 24.7705 7.92678 24.7068 8.00707 24.6265C8.08735 24.5462 8.15103 24.4509 8.19447 24.346C8.23792 24.2411 8.26027 24.1287 8.26027 24.0151C8.26026 23.9016 8.23789 23.7891 8.19443 23.6842C8.15098 23.5794 8.08729 23.484 8.007 23.4038C7.92671 23.3235 7.83139 23.2598 7.72649 23.2164C7.62159 23.1729 7.50916 23.1506 7.39562 23.1506C7.16631 23.1506 6.9464 23.2417 6.78427 23.4038C6.62213 23.566 6.53105 23.7859 6.53107 24.0152C6.53108 24.2445 6.62218 24.4644 6.78434 24.6266C6.94649 24.7887 7.16641 24.8798 7.39572 24.8798Z" fill="#FFE1AB"/>
<path d="M10.8994 42.5156L11.2014 41.7935C11.2332 41.7173 11.3478 41.7545 11.3287 41.8349L11.1485 42.5966C11.1455 42.6095 11.1463 42.623 11.1509 42.6354C11.1555 42.6478 11.1637 42.6586 11.1744 42.6664C11.1852 42.6742 11.1979 42.6786 11.2112 42.6792C11.2244 42.6797 11.2375 42.6763 11.2488 42.6694L11.9176 42.2627C11.9881 42.2198 12.0589 42.3172 11.9963 42.371L11.4027 42.8814C11.3927 42.89 11.3854 42.9014 11.3819 42.9142C11.3783 42.9269 11.3786 42.9404 11.3827 42.953C11.3868 42.9656 11.3945 42.9767 11.4049 42.9849C11.4152 42.9932 11.4278 42.9981 11.441 42.9992L12.2212 43.0632C12.3034 43.0699 12.3034 43.1903 12.2212 43.1971L11.441 43.261C11.4278 43.2621 11.4152 43.2671 11.4049 43.2753C11.3945 43.2836 11.3868 43.2947 11.3827 43.3073C11.3786 43.3198 11.3783 43.3334 11.3819 43.3461C11.3854 43.3589 11.3927 43.3703 11.4027 43.3789L11.9963 43.8893C12.0589 43.9431 11.9881 44.0404 11.9176 43.9976L11.2488 43.5908C11.2375 43.584 11.2244 43.5806 11.2112 43.5811C11.1979 43.5817 11.1852 43.5861 11.1744 43.5939C11.1637 43.6017 11.1555 43.6124 11.1509 43.6249C11.1463 43.6373 11.1455 43.6508 11.1485 43.6637L11.3287 44.4254C11.3478 44.5057 11.2332 44.5429 11.2014 44.4668L10.8994 43.7446C10.8943 43.7324 10.8857 43.722 10.8747 43.7147C10.8636 43.7073 10.8507 43.7034 10.8375 43.7034C10.8242 43.7034 10.8113 43.7073 10.8002 43.7147C10.7892 43.722 10.7806 43.7324 10.7755 43.7446L10.4735 44.4668C10.4417 44.543 10.3271 44.5058 10.3462 44.4254L10.5264 43.6637C10.5294 43.6508 10.5286 43.6373 10.524 43.6249C10.5194 43.6124 10.5112 43.6017 10.5005 43.5939C10.4897 43.5861 10.477 43.5817 10.4637 43.5811C10.4505 43.5806 10.4374 43.584 10.4261 43.5908L9.75732 43.9976C9.68682 44.0404 9.61602 43.9431 9.67861 43.8893L10.2722 43.3789C10.2822 43.3703 10.2895 43.3589 10.293 43.3461C10.2966 43.3334 10.2963 43.3198 10.2922 43.3073C10.2881 43.2947 10.2804 43.2836 10.27 43.2753C10.2597 43.2671 10.2471 43.2621 10.2339 43.261L9.45371 43.1971C9.37148 43.1903 9.37148 43.0699 9.45371 43.0632L10.2339 42.9992C10.2471 42.9981 10.2597 42.9932 10.27 42.9849C10.2804 42.9767 10.2881 42.9656 10.2922 42.953C10.2963 42.9404 10.2966 42.9269 10.293 42.9142C10.2895 42.9014 10.2822 42.89 10.2722 42.8814L9.67861 42.371C9.61602 42.3172 9.68682 42.2198 9.75732 42.2627L10.4261 42.6694C10.4374 42.6763 10.4505 42.6797 10.4637 42.6792C10.477 42.6786 10.4897 42.6742 10.5005 42.6664C10.5112 42.6586 10.5194 42.6478 10.524 42.6354C10.5286 42.623 10.5294 42.6095 10.5264 42.5966L10.3462 41.8349C10.3271 41.7546 10.4417 41.7174 10.4735 41.7935L10.7755 42.5156C10.7806 42.5278 10.7892 42.5383 10.8002 42.5456C10.8113 42.5529 10.8242 42.5569 10.8375 42.5569C10.8507 42.5569 10.8636 42.5529 10.8747 42.5456C10.8857 42.5383 10.8943 42.5278 10.8994 42.5156ZM6.46914 13.9943L6.16719 13.2721C6.13535 13.1959 6.0208 13.2331 6.03984 13.3135L6.22002 14.0752C6.22306 14.0881 6.22223 14.1016 6.21762 14.114C6.21301 14.1264 6.20483 14.1372 6.19412 14.145C6.1834 14.1528 6.17062 14.1572 6.15738 14.1578C6.14415 14.1583 6.13105 14.1549 6.11973 14.1481L5.45098 13.7413C5.38047 13.6985 5.30967 13.7958 5.37227 13.8496L5.96582 14.36C5.97585 14.3686 5.98311 14.38 5.98668 14.3928C5.99025 14.4055 5.98997 14.419 5.98588 14.4316C5.98179 14.4442 5.97407 14.4553 5.96369 14.4636C5.95331 14.4718 5.94073 14.4768 5.92754 14.4778L5.14736 14.5418C5.06514 14.5485 5.06514 14.669 5.14736 14.6757L5.92754 14.7397C5.98701 14.7445 6.01104 14.8187 5.96582 14.8575L5.37227 15.3679C5.30967 15.4217 5.38047 15.5191 5.45098 15.4762L6.11973 15.0694C6.13105 15.0626 6.14415 15.0592 6.15738 15.0597C6.17062 15.0603 6.1834 15.0647 6.19412 15.0725C6.20483 15.0803 6.21301 15.0911 6.21762 15.1035C6.22223 15.1159 6.22306 15.1294 6.22002 15.1423L6.03984 15.904C6.0208 15.9843 6.13535 16.0215 6.16719 15.9454L6.46914 15.2233C6.47426 15.211 6.48287 15.2006 6.4939 15.1933C6.50492 15.186 6.51786 15.182 6.5311 15.182C6.54434 15.182 6.55729 15.186 6.56831 15.1933C6.57934 15.2006 6.58795 15.211 6.59307 15.2233L6.89502 15.9454C6.92686 16.0216 7.04141 15.9844 7.02236 15.904L6.84219 15.1423C6.83914 15.1294 6.83998 15.1159 6.84459 15.1035C6.84919 15.0911 6.85737 15.0803 6.86809 15.0725C6.87881 15.0647 6.89159 15.0603 6.90482 15.0597C6.91806 15.0592 6.93116 15.0626 6.94248 15.0694L7.61123 15.4762C7.68174 15.5191 7.75254 15.4217 7.68994 15.3679L7.09639 14.8575C7.08635 14.8489 7.0791 14.8375 7.07553 14.8247C7.07196 14.812 7.07223 14.7985 7.07632 14.7859C7.08041 14.7733 7.08813 14.7622 7.09851 14.7539C7.10889 14.7457 7.12147 14.7408 7.13467 14.7397L7.91484 14.6757C7.99707 14.669 7.99707 14.5485 7.91484 14.5418L7.13467 14.4778C7.12147 14.4768 7.10889 14.4718 7.09851 14.4636C7.08813 14.4553 7.08041 14.4442 7.07632 14.4316C7.07223 14.419 7.07196 14.4055 7.07553 14.3928C7.0791 14.38 7.08635 14.3686 7.09639 14.36L7.68994 13.8496C7.75254 13.7958 7.68174 13.6985 7.61123 13.7413L6.94248 14.1481C6.93116 14.1549 6.91806 14.1583 6.90482 14.1578C6.89159 14.1572 6.87881 14.1528 6.86809 14.145C6.85737 14.1372 6.84919 14.1264 6.84459 14.114C6.83998 14.1016 6.83914 14.0881 6.84219 14.0752L7.02236 13.3135C7.04141 13.2332 6.92686 13.196 6.89502 13.2721L6.59307 13.9943C6.58795 14.0065 6.57934 14.0169 6.56831 14.0242C6.55729 14.0316 6.54434 14.0355 6.5311 14.0355C6.51786 14.0355 6.50492 14.0316 6.4939 14.0242C6.48287 14.0169 6.47426 14.0065 6.46914 13.9943ZM33.018 4.38615L32.8163 3.90382C32.7752 3.80558 32.6274 3.85363 32.652 3.95724L32.7723 4.46603C32.7899 4.54093 32.7086 4.60001 32.6429 4.56007L32.1962 4.28839C32.1053 4.23302 32.0139 4.3587 32.0946 4.42814L32.491 4.76896C32.5493 4.81915 32.5183 4.91476 32.4416 4.92111L31.9205 4.96388C31.8144 4.97257 31.8144 5.12794 31.9205 5.13663L32.4416 5.17941C32.5183 5.18566 32.5493 5.28136 32.491 5.33156L32.0946 5.67238C32.0139 5.74181 32.1052 5.86749 32.1962 5.81212L32.6429 5.54044C32.7086 5.5005 32.7899 5.55958 32.7723 5.63449L32.652 6.14328C32.6274 6.24689 32.7752 6.29493 32.8163 6.19669L33.018 5.71437C33.0477 5.64337 33.1482 5.64337 33.1779 5.71437L33.3796 6.19669C33.4207 6.29493 33.5685 6.24689 33.5439 6.14328L33.4236 5.63449C33.406 5.55958 33.4873 5.5005 33.553 5.54044L33.9997 5.81212C34.0906 5.86749 34.182 5.74181 34.1013 5.67238L33.7049 5.33156C33.6466 5.28136 33.6776 5.18576 33.7543 5.17941L34.2754 5.13663C34.3815 5.12794 34.3815 4.97257 34.2754 4.96388L33.7543 4.92111C33.6776 4.91486 33.6466 4.81915 33.7049 4.76896L34.1013 4.42814C34.182 4.3587 34.0907 4.23302 33.9997 4.28839L33.553 4.56007C33.4873 4.60001 33.406 4.54093 33.4236 4.46603L33.5439 3.95724C33.5685 3.85363 33.4207 3.80558 33.3796 3.90382L33.1779 4.38615C33.1482 4.45714 33.0477 4.45714 33.018 4.38615Z" fill="#F9F8F2"/>
</svg>
