<svg width="50" height="50" viewBox="0 0 50 50" fill="none" xmlns="http://www.w3.org/2000/svg">
<path d="M13.5417 12.5C15.5625 12.5 17.4375 13.5417 18.9792 15.375C20.125 14.1459 21.4792 13.25 22.9167 12.8125V8.33335C22.9167 7.22828 23.3556 6.16848 24.137 5.38708C24.9184 4.60567 25.9783 4.16669 27.0833 4.16669H31.25V8.33335H27.0833V12.8125C28.5208 13.25 29.875 14.1459 31.0208 15.375C32.5625 13.5417 34.4375 12.5 36.4583 12.5C41.6667 12.5 45.8333 19.5 45.8333 28.125C45.8333 36.75 41.6667 43.75 36.4583 43.75C34.4375 43.75 32.5625 42.7084 31.0208 40.875C29.3333 42.7084 27.25 43.75 25 43.75C22.75 43.75 20.6667 42.7084 18.9792 40.875C17.4375 42.7084 15.5625 43.75 13.5417 43.75C8.33332 43.75 4.16666 36.75 4.16666 28.125C4.16666 19.5 8.33332 12.5 13.5417 12.5ZM18.75 20.8334L16.1458 25.5209H21.3542L18.75 20.8334ZM31.25 20.8334L28.6458 25.5209H33.8542L31.25 20.8334ZM16.6667 35.4167H20.8333L22.9167 33.3334L25 35.4167H29.1667L31.25 33.3334L33.3333 35.4167L36.4583 29.1667L29 30.4584L27.0833 33.3334L25 31.25H20.8333L18.75 33.3334L16.6667 31.25L12.5 29.1667L16.6667 35.4167Z" fill="#D27C2C"/>
</svg>
